# xmcd
#
# Track frame offsets:
#	182
#	73832
#	105120
#	125952
#	144825
#	160922
#
# Disc length: 2397 seconds
#
# Revision: 0
# Processed by: cddbd v1.4PL0 Copyright (c) Steve Scherf et al.
# Submitted via: dBpowerAMP V4.0
#
DISCID=4e095b06
DTITLE=Workdogs - Roberta
DYEAR=1900
DGENRE=Blues
TTITLE0=Roberta
TTITLE1=Jane Gone
TTITLE2=Rob K's Money Crazy Boogie
TTITLE3=Naked Giveaway
TTITLE4=Moon Goin' Down
TTITLE5=A Woman Is More Than A Box We Come In
EXTD=
EXTT0=
EXTT1=
EXTT2=
EXTT3=
EXTT4=
EXTT5=
PLAYORDER=
